# xmcd
#
# Track frame offsets:
#	150
#	11298
#	18590
#	28231
#	41318
#	50905
#	65129
#	74405
#	86264
#	101003
#	114415
#	126482
#
# Disc length: 1829 seconds
#
# Revision: 0
# Processed by: cddbd v1.5PL3 Copyright (c) Steve Scherf et al.
# Submitted via: dBpowerAMP V4.0
#
DISCID=a507230c
DTITLE=Max Forestieri - Home without roof
DYEAR=2003
DGENRE=
TTITLE0=Ghostbusker stomp
TTITLE1=You're bright like the sun
TTITLE2=Lil' crabs riot
TTITLE3=Cloak-song
TTITLE4=Cormoran walk
TTITLE5=You treat me so bad
TTITLE6=Phoney moon
TTITLE7=Zombie blues
TTITLE8=Route 66
TTITLE9=Home without roof
TTITLE10=Workout instrumental
TTITLE11=Zuputu boogie
EXTD=
EXTT0=
EXTT1=
EXTT2=
EXTT3=
EXTT4=
EXTT5=
EXTT6=
EXTT7=
EXTT8=
EXTT9=
EXTT10=
EXTT11=
PLAYORDER=
